<svg width="127" height="127" viewBox="0 0 127 127" fill="none" xmlns="http://www.w3.org/2000/svg">
<path d="M53.5107 34.5928C50.6145 40.7357 47.632 47.1349 44.8567 53.3844C42.0085 47.1084 39.0203 40.7443 36.0752 34.5501C35.9289 34.2235 35.6865 33.7989 35.2123 33.5176C34.7563 33.2471 34.2758 33.227 33.9691 33.227H24.8674C24.3257 33.227 23.7201 33.4897 23.3804 34.0579C23.0068 34.6829 23.1202 35.3705 23.4525 35.8856L37.1464 63.2744L22.9944 90.3385C22.7369 90.7089 22.528 91.2717 22.7241 91.8904C22.9937 92.7411 23.7842 93.029 24.3911 93.029H33.1224C33.5024 93.029 33.9196 92.9548 34.3204 92.7099C34.7037 92.4757 34.9631 92.151 35.153 91.846L35.1889 91.7883L35.2185 91.7271C38.2307 85.4906 41.3269 78.8759 44.2102 72.4785C46.453 77.2118 48.6557 81.7539 50.8287 86.2347C51.7115 88.055 52.5892 89.8652 53.4629 91.674L53.4698 91.6878C53.6467 92.0431 53.9115 92.4598 54.3757 92.7465C54.84 93.0333 55.3291 93.0821 55.7178 93.0821H64.9253C65.6202 93.0821 66.2709 92.6892 66.5317 91.991C66.7556 91.3916 66.6133 90.7891 66.3522 90.3428L51.8559 62.3827L65.5591 35.806C65.7863 35.4181 66.0005 34.7911 65.7072 34.1369C65.3701 33.3849 64.6372 33.1739 64.1316 33.1739H55.612C55.0992 33.1739 54.6165 33.3158 54.2082 33.6671C53.9164 33.9182 53.7137 34.2481 53.6079 34.4202L53.5814 34.4632L53.5423 34.526L53.5107 34.5928Z" fill="#2E3A59"/>
<path fill-rule="evenodd" clip-rule="evenodd" d="M92.3361 33.227C91.4494 33.227 90.537 33.9314 90.537 35.0282V47.7439C90.0854 47.7284 89.6394 47.7284 89.0672 47.7284H89.0553C82.2142 47.7284 76.5649 50.2776 72.6329 54.5155C68.711 58.7428 66.5657 64.575 66.5657 71.0427C66.5657 78.5047 68.6878 84.2481 72.4624 88.1234C76.2386 92.0003 81.5185 93.853 87.524 93.8258C92.1493 93.8253 96.993 92.8304 101.615 90.6209L101.637 90.61C101.799 90.5288 102.146 90.3541 102.406 90.015C102.713 89.615 102.761 89.1855 102.761 88.8906V88.8055L102.749 88.7212C102.498 86.8503 102.496 85.1228 102.496 83.685V34.922C102.496 34.656 102.449 34.1064 101.98 33.6753C101.546 33.2761 101.014 33.227 100.697 33.227H92.3361ZM81.5443 61.3795C83.2862 59.324 85.7545 58.1831 88.7378 58.1831C89.4437 58.1831 90.0489 58.2568 90.537 58.3684V82.8126C89.8449 82.9743 89.0069 83.0524 88.1557 83.0524C85.4533 83.0524 83.1461 82.1734 81.4961 80.2967C79.828 78.3993 78.6836 75.3136 78.6836 70.6178C78.6836 66.5642 79.7863 63.4539 81.5443 61.3795Z" fill="#2E3A59"/>
<path fill-rule="evenodd" clip-rule="evenodd" d="M101.6 12.7H25.4C18.386 12.7 12.7 18.386 12.7 25.4V101.6C12.7 108.614 18.386 114.3 25.4 114.3H101.6C108.614 114.3 114.3 108.614 114.3 101.6V25.4C114.3 18.386 108.614 12.7 101.6 12.7ZM25.4 0C11.372 0 0 11.372 0 25.4V101.6C0 115.628 11.372 127 25.4 127H101.6C115.628 127 127 115.628 127 101.6V25.4C127 11.372 115.628 0 101.6 0H25.4Z" fill="#2E3A59"/>
</svg>
