<svg width="63" height="89" viewBox="0 0 63 89" fill="none" xmlns="http://www.w3.org/2000/svg">
<path fill-rule="evenodd" clip-rule="evenodd" d="M17.6549 0C7.96343 0 0.0999756 7.82069 0.0999756 17.4594C0.0999756 22.9097 2.61481 27.7785 6.55031 30.98C2.61481 34.1815 0.0999756 39.0503 0.0999756 44.5006C0.0999756 49.9505 2.61451 54.8191 6.54961 58.0206C2.61452 61.2221 0.0999756 66.0906 0.0999756 71.5406C0.0999756 81.1793 7.96343 89 17.6549 89C27.3463 89 35.2097 81.1793 35.2097 71.5406V59.0952C37.9762 60.9059 41.2881 61.96 44.8451 61.96C54.5365 61.96 62.4 54.1393 62.4 44.5006C62.4 39.0503 59.8851 34.1815 55.9496 30.98C59.8851 27.7785 62.4 22.9097 62.4 17.4594C62.4 7.82069 54.5365 0 44.8451 0H17.6549ZM8.02103 17.4594C8.02103 12.1716 12.3381 7.87798 17.6549 7.87798H27.2887V27.0408H17.6549C12.3381 27.0408 8.02103 22.7472 8.02103 17.4594ZM54.4789 17.4594C54.4789 22.7472 50.1618 27.0408 44.8451 27.0408H35.2113V7.87798H44.8451C50.1618 7.87798 54.4789 12.1716 54.4789 17.4594ZM8.02103 44.5006C8.02103 39.2128 12.3381 34.9192 17.6549 34.9192H27.2887V54.0812H17.6531L17.5538 54.0815C12.2836 54.0275 8.02103 49.7549 8.02103 44.5006ZM35.2113 44.5006C35.2113 39.2128 39.5283 34.9192 44.8451 34.9192C50.1618 34.9192 54.4789 39.2128 54.4789 44.5006C54.4789 49.7884 50.1618 54.082 44.8451 54.082C39.5283 54.082 35.2113 49.7884 35.2113 44.5006ZM8.02103 71.5406C8.02103 66.2863 12.2836 62.0136 17.5538 61.9597L17.6549 61.96H27.2887V71.5406C27.2887 76.8284 22.9716 81.122 17.6549 81.122C12.3381 81.122 8.02103 76.8284 8.02103 71.5406Z" fill="#2E3A59"/>
</svg>
