<svg width="81" height="81" viewBox="0 0 81 81" fill="none" xmlns="http://www.w3.org/2000/svg">
<path d="M0 0H80.1V80.1H0V0ZM73.5362 60.9962C72.9533 57.3427 70.5726 54.2722 63.5149 51.4064C61.0585 50.2538 58.3306 49.4573 57.5118 47.6061C57.2092 46.5025 57.1647 45.9062 57.3605 45.252C57.8633 43.0982 60.4176 42.453 62.4201 43.0493C63.724 43.4498 64.9255 44.451 65.6776 46.0575C69.1263 43.8013 69.1263 43.8013 71.5338 42.3017C70.6304 40.9044 70.1809 40.2947 69.5802 39.694C67.4753 37.3444 64.6718 36.1429 60.1195 36.2453L57.7699 36.5434C55.5137 37.0952 53.3599 38.3011 52.0605 39.8987C48.2558 44.2063 49.3549 51.7134 53.9607 54.824C58.513 58.2282 65.1791 58.9758 66.0291 62.1798C66.8301 66.0869 63.1277 67.3374 59.4654 66.8879C56.7642 66.2827 55.2601 64.9344 53.6091 62.429L47.5037 65.9356C48.2024 67.5332 49.0034 68.2363 50.2049 69.638C56.0121 75.4942 70.5325 75.1961 73.1357 66.2827C73.2292 65.9846 73.9367 63.9332 73.3849 60.7781L73.5362 60.9962ZM43.5566 36.8148H36.0539C36.0539 43.2807 36.0227 49.7109 36.0227 56.1901C36.0227 60.3019 36.2319 64.0755 35.5599 65.237C34.4608 67.5376 31.6172 67.2439 30.3312 66.8345C29.0095 66.1848 28.3376 65.2815 27.5588 63.9821C27.3497 63.635 27.1939 63.3324 27.1361 63.3324L21.0485 67.0882C22.0675 69.193 23.5538 70.9997 25.4718 72.1478C28.3242 73.8522 32.1557 74.404 36.1696 73.5051C38.7862 72.7486 41.0423 71.1955 42.2127 68.7925C43.9215 65.6909 43.5566 61.8817 43.5432 57.6275C43.5788 50.77 43.5432 43.9081 43.5432 37.0017L43.5566 36.8148Z" fill="#2E3A59"/>
</svg>
